<mxfile host="app.diagrams.net" agent="Mozilla/5.0 (Windows NT 10.0; Win64; x64) AppleWebKit/537.36 (KHTML, like Gecko) Chrome/131.0.0.0 Safari/537.36" version="25.0.1">
  <diagram name="Página-1" id="c2ZlnQzwMiy9aTIBDgFo">
    <mxGraphModel grid="1" page="1" gridSize="10" guides="1" tooltips="1" connect="1" arrows="1" fold="1" pageScale="1" pageWidth="827" pageHeight="1169" math="0" shadow="0">
      <root>
        <mxCell id="0" />
        <mxCell id="1" parent="0" />
        <mxCell id="oRUoQj8NFfWG1aGairN0-1" value="Beachgoer" style="shape=umlActor;verticalLabelPosition=bottom;verticalAlign=top;html=1;outlineConnect=0;fillColor=#fff2cc;strokeColor=#d6b656;" vertex="1" parent="1">
          <mxGeometry x="-780" y="-650" width="30" height="60" as="geometry" />
        </mxCell>
        <mxCell id="oRUoQj8NFfWG1aGairN0-2" value="Regular&lt;div&gt;&lt;br&gt;&lt;/div&gt;" style="shape=umlActor;verticalLabelPosition=bottom;verticalAlign=top;html=1;outlineConnect=0;fillColor=#f8cecc;strokeColor=#b85450;" vertex="1" parent="1">
          <mxGeometry x="-640" y="-340" width="30" height="60" as="geometry" />
        </mxCell>
        <mxCell id="oRUoQj8NFfWG1aGairN0-3" value="Supervisor&lt;div&gt;&lt;br&gt;&lt;/div&gt;" style="shape=umlActor;verticalLabelPosition=bottom;verticalAlign=top;html=1;outlineConnect=0;fillColor=#dae8fc;strokeColor=#3333FF;" vertex="1" parent="1">
          <mxGeometry x="-640" y="-210" width="30" height="60" as="geometry" />
        </mxCell>
        <mxCell id="oRUoQj8NFfWG1aGairN0-4" value="&lt;div&gt;Beach&lt;/div&gt;Business&lt;div&gt;Owner&lt;/div&gt;" style="shape=umlActor;verticalLabelPosition=bottom;verticalAlign=top;html=1;outlineConnect=0;fillColor=#d5e8d4;strokeColor=#82b366;" vertex="1" parent="1">
          <mxGeometry x="-640" y="-70" width="30" height="60" as="geometry" />
        </mxCell>
        <mxCell id="oRUoQj8NFfWG1aGairN0-9" value="" style="rounded=0;whiteSpace=wrap;html=1;fillColor=#dae8fc;strokeColor=#6c8ebf;" vertex="1" parent="1">
          <mxGeometry x="-520" y="-1040" width="610" height="1360" as="geometry" />
        </mxCell>
        <mxCell id="oRUoQj8NFfWG1aGairN0-18" style="rounded=0;orthogonalLoop=1;jettySize=auto;html=1;exitX=0;exitY=0;exitDx=0;exitDy=0;dashed=1;" edge="1" parent="1" source="oRUoQj8NFfWG1aGairN0-10" target="oRUoQj8NFfWG1aGairN0-17">
          <mxGeometry relative="1" as="geometry" />
        </mxCell>
        <mxCell id="Ar7ejT-WlbMmKzFcWVZC-7" value="«includes»" style="edgeLabel;html=1;align=center;verticalAlign=middle;resizable=0;points=[];" vertex="1" connectable="0" parent="oRUoQj8NFfWG1aGairN0-18">
          <mxGeometry x="-0.0067" relative="1" as="geometry">
            <mxPoint y="1" as="offset" />
          </mxGeometry>
        </mxCell>
        <mxCell id="Ar7ejT-WlbMmKzFcWVZC-39" style="rounded=0;orthogonalLoop=1;jettySize=auto;html=1;exitX=1;exitY=1;exitDx=0;exitDy=0;entryX=0;entryY=0;entryDx=0;entryDy=0;dashed=1;" edge="1" parent="1" source="oRUoQj8NFfWG1aGairN0-10" target="Ar7ejT-WlbMmKzFcWVZC-23">
          <mxGeometry relative="1" as="geometry" />
        </mxCell>
        <mxCell id="Ar7ejT-WlbMmKzFcWVZC-40" value="&lt;span style=&quot;color: rgba(0, 0, 0, 0); font-family: monospace; font-size: 0px; text-align: start; background-color: rgb(251, 251, 251);&quot;&gt;%3CmxGraphModel%3E%3Croot%3E%3CmxCell%20id%3D%220%22%2F%3E%3CmxCell%20id%3D%221%22%20parent%3D%220%22%2F%3E%3CmxCell%20id%3D%222%22%20style%3D%22rounded%3D0%3BorthogonalLoop%3D1%3BjettySize%3Dauto%3Bhtml%3D1%3BexitX%3D1%3BexitY%3D0.5%3BexitDx%3D0%3BexitDy%3D0%3BendArrow%3Dnone%3BendFill%3D0%3B%22%20edge%3D%221%22%20parent%3D%221%22%3E%3CmxGeometry%20relative%3D%221%22%20as%3D%22geometry%22%3E%3CmxPoint%20x%3D%221340%22%20y%3D%2270%22%20as%3D%22targetPoint%22%2F%3E%3CmxPoint%20x%3D%22534%22%20y%3D%22340%22%20as%3D%22sourcePoint%22%2F%3E%3C%2FmxGeometry%3E%3C%2FmxCell%3E%3C%2Froot%3E%3C%2FmxGraphModel%»&lt;/span&gt;" style="edgeLabel;html=1;align=center;verticalAlign=middle;resizable=0;points=[];" vertex="1" connectable="0" parent="Ar7ejT-WlbMmKzFcWVZC-39">
          <mxGeometry x="-0.1289" y="3" relative="1" as="geometry">
            <mxPoint as="offset" />
          </mxGeometry>
        </mxCell>
        <mxCell id="Ar7ejT-WlbMmKzFcWVZC-42" value="«extends»" style="edgeLabel;html=1;align=center;verticalAlign=middle;resizable=0;points=[];" vertex="1" connectable="0" parent="Ar7ejT-WlbMmKzFcWVZC-39">
          <mxGeometry x="-0.0636" y="2" relative="1" as="geometry">
            <mxPoint as="offset" />
          </mxGeometry>
        </mxCell>
        <mxCell id="Ar7ejT-WlbMmKzFcWVZC-49" style="rounded=0;orthogonalLoop=1;jettySize=auto;html=1;exitX=0.5;exitY=0;exitDx=0;exitDy=0;entryX=0.5;entryY=1;entryDx=0;entryDy=0;dashed=1;" edge="1" parent="1" source="oRUoQj8NFfWG1aGairN0-10" target="Ar7ejT-WlbMmKzFcWVZC-29">
          <mxGeometry relative="1" as="geometry" />
        </mxCell>
        <mxCell id="Ar7ejT-WlbMmKzFcWVZC-50" value="«extends»" style="edgeLabel;html=1;align=center;verticalAlign=middle;resizable=0;points=[];" vertex="1" connectable="0" parent="Ar7ejT-WlbMmKzFcWVZC-49">
          <mxGeometry x="0.1902" relative="1" as="geometry">
            <mxPoint x="1" as="offset" />
          </mxGeometry>
        </mxCell>
        <mxCell id="oRUoQj8NFfWG1aGairN0-10" value="&lt;div&gt;&lt;span style=&quot;background-color: initial;&quot;&gt;Acess Interactive Map&lt;/span&gt;&lt;/div&gt;" style="ellipse;whiteSpace=wrap;html=1;" vertex="1" parent="1">
          <mxGeometry x="-276" y="-360" width="120" height="80" as="geometry" />
        </mxCell>
        <mxCell id="oRUoQj8NFfWG1aGairN0-15" style="rounded=0;orthogonalLoop=1;jettySize=auto;html=1;entryX=0;entryY=0.5;entryDx=0;entryDy=0;endArrow=none;endFill=0;fillColor=#dae8fc;strokeColor=#3333FF;" edge="1" parent="1" target="oRUoQj8NFfWG1aGairN0-10">
          <mxGeometry relative="1" as="geometry">
            <mxPoint x="-600" y="-190" as="sourcePoint" />
          </mxGeometry>
        </mxCell>
        <mxCell id="oRUoQj8NFfWG1aGairN0-13" style="rounded=0;orthogonalLoop=1;jettySize=auto;html=1;entryX=0;entryY=0.5;entryDx=0;entryDy=0;endArrow=none;endFill=0;fillColor=#f8cecc;strokeColor=#b85450;" edge="1" parent="1" target="oRUoQj8NFfWG1aGairN0-10">
          <mxGeometry relative="1" as="geometry">
            <mxPoint x="-600" y="-320" as="sourcePoint" />
          </mxGeometry>
        </mxCell>
        <mxCell id="oRUoQj8NFfWG1aGairN0-14" style="rounded=0;orthogonalLoop=1;jettySize=auto;html=1;endArrow=none;endFill=0;entryX=0;entryY=0.5;entryDx=0;entryDy=0;fillColor=#fff2cc;strokeColor=#d6b656;" edge="1" parent="1" target="oRUoQj8NFfWG1aGairN0-10">
          <mxGeometry relative="1" as="geometry">
            <mxPoint x="-730" y="-620" as="sourcePoint" />
            <mxPoint x="-560" y="-390" as="targetPoint" />
          </mxGeometry>
        </mxCell>
        <mxCell id="Ar7ejT-WlbMmKzFcWVZC-51" style="rounded=0;orthogonalLoop=1;jettySize=auto;html=1;exitX=0.5;exitY=0;exitDx=0;exitDy=0;entryX=0.5;entryY=1;entryDx=0;entryDy=0;dashed=1;" edge="1" parent="1" source="oRUoQj8NFfWG1aGairN0-17" target="Ar7ejT-WlbMmKzFcWVZC-12">
          <mxGeometry relative="1" as="geometry" />
        </mxCell>
        <mxCell id="Ar7ejT-WlbMmKzFcWVZC-52" value="«includes»" style="edgeLabel;html=1;align=center;verticalAlign=middle;resizable=0;points=[];" vertex="1" connectable="0" parent="Ar7ejT-WlbMmKzFcWVZC-51">
          <mxGeometry x="-0.0353" y="-1" relative="1" as="geometry">
            <mxPoint as="offset" />
          </mxGeometry>
        </mxCell>
        <mxCell id="oRUoQj8NFfWG1aGairN0-17" value="Report hazard" style="ellipse;whiteSpace=wrap;html=1;" vertex="1" parent="1">
          <mxGeometry x="-380" y="-480" width="120" height="80" as="geometry" />
        </mxCell>
        <mxCell id="oRUoQj8NFfWG1aGairN0-19" value="Lifeguard" style="shape=umlActor;verticalLabelPosition=bottom;verticalAlign=top;html=1;outlineConnect=0;fillColor=#f8cecc;strokeColor=#b85450;" vertex="1" parent="1">
          <mxGeometry x="-780" y="-240" width="30" height="60" as="geometry" />
        </mxCell>
        <mxCell id="oRUoQj8NFfWG1aGairN0-22" style="rounded=0;orthogonalLoop=1;jettySize=auto;html=1;fillColor=#f8cecc;strokeColor=#b85450;" edge="1" parent="1">
          <mxGeometry relative="1" as="geometry">
            <mxPoint x="-650" y="-310" as="sourcePoint" />
            <mxPoint x="-740" y="-230" as="targetPoint" />
          </mxGeometry>
        </mxCell>
        <mxCell id="oRUoQj8NFfWG1aGairN0-23" style="rounded=0;orthogonalLoop=1;jettySize=auto;html=1;fillColor=#dae8fc;strokeColor=#3333FF;" edge="1" parent="1">
          <mxGeometry relative="1" as="geometry">
            <mxPoint x="-650" y="-190" as="sourcePoint" />
            <mxPoint x="-740" y="-220" as="targetPoint" />
          </mxGeometry>
        </mxCell>
        <mxCell id="oRUoQj8NFfWG1aGairN0-24" value="Input Beach General Informations" style="ellipse;whiteSpace=wrap;html=1;" vertex="1" parent="1">
          <mxGeometry x="-276" y="-200" width="120" height="80" as="geometry" />
        </mxCell>
        <mxCell id="oRUoQj8NFfWG1aGairN0-27" value="&lt;div&gt;«Service»&lt;/div&gt;Identity&amp;nbsp;&lt;div&gt;Provider&lt;/div&gt;" style="shape=umlActor;verticalLabelPosition=bottom;verticalAlign=top;html=1;outlineConnect=0;" vertex="1" parent="1">
          <mxGeometry x="193" y="-510" width="30" height="60" as="geometry" />
        </mxCell>
        <mxCell id="oRUoQj8NFfWG1aGairN0-41" style="rounded=0;orthogonalLoop=1;jettySize=auto;html=1;entryX=0;entryY=0.5;entryDx=0;entryDy=0;endArrow=none;endFill=0;fillColor=#f8cecc;strokeColor=#b85450;" edge="1" parent="1" target="oRUoQj8NFfWG1aGairN0-17">
          <mxGeometry relative="1" as="geometry">
            <mxPoint x="-600" y="-320" as="sourcePoint" />
          </mxGeometry>
        </mxCell>
        <mxCell id="oRUoQj8NFfWG1aGairN0-42" style="rounded=0;orthogonalLoop=1;jettySize=auto;html=1;entryX=0;entryY=0.5;entryDx=0;entryDy=0;endArrow=none;endFill=0;fillColor=#fff2cc;strokeColor=#d6b656;" edge="1" parent="1" target="oRUoQj8NFfWG1aGairN0-17">
          <mxGeometry relative="1" as="geometry">
            <mxPoint x="-730" y="-620" as="sourcePoint" />
          </mxGeometry>
        </mxCell>
        <mxCell id="oRUoQj8NFfWG1aGairN0-44" style="rounded=0;orthogonalLoop=1;jettySize=auto;html=1;entryX=0;entryY=0.5;entryDx=0;entryDy=0;endArrow=none;endFill=0;fillColor=#dae8fc;strokeColor=#3333FF;" edge="1" parent="1" target="oRUoQj8NFfWG1aGairN0-17">
          <mxGeometry relative="1" as="geometry">
            <mxPoint x="-600" y="-190" as="sourcePoint" />
          </mxGeometry>
        </mxCell>
        <mxCell id="oRUoQj8NFfWG1aGairN0-45" style="rounded=0;orthogonalLoop=1;jettySize=auto;html=1;entryX=0;entryY=0.5;entryDx=0;entryDy=0;endArrow=none;endFill=0;fillColor=#dae8fc;strokeColor=#3333FF;" edge="1" parent="1" target="oRUoQj8NFfWG1aGairN0-24">
          <mxGeometry relative="1" as="geometry">
            <mxPoint x="-600" y="-190" as="sourcePoint" />
          </mxGeometry>
        </mxCell>
        <mxCell id="Ar7ejT-WlbMmKzFcWVZC-1" value="&lt;div&gt;«Service»&lt;/div&gt;Authentication" style="shape=umlActor;verticalLabelPosition=bottom;verticalAlign=top;html=1;outlineConnect=0;" vertex="1" parent="1">
          <mxGeometry x="194" y="-680" width="30" height="60" as="geometry" />
        </mxCell>
        <mxCell id="Ar7ejT-WlbMmKzFcWVZC-2" value="&lt;b&gt;&lt;font style=&quot;font-size: 18px;&quot;&gt;SPLASH&lt;/font&gt;&lt;/b&gt;&lt;div&gt;&lt;b&gt;&lt;font size=&quot;3&quot;&gt;Grupo 14 (JPNV)&lt;/font&gt;&lt;/b&gt;&lt;/div&gt;&lt;div&gt;&lt;b&gt;&lt;font size=&quot;3&quot;&gt;V2024/11/09&lt;/font&gt;&lt;/b&gt;&lt;/div&gt;" style="shape=note;size=20;whiteSpace=wrap;html=1;fillColor=#dae8fc;strokeColor=#6c8ebf;" vertex="1" parent="1">
          <mxGeometry x="-810" y="-1160" width="205" height="100" as="geometry" />
        </mxCell>
        <mxCell id="Ar7ejT-WlbMmKzFcWVZC-4" value="" style="endArrow=classic;html=1;rounded=0;exitX=0.5;exitY=1;exitDx=0;exitDy=0;entryX=0.5;entryY=0;entryDx=0;entryDy=0;dashed=1;" edge="1" parent="1" source="oRUoQj8NFfWG1aGairN0-10" target="oRUoQj8NFfWG1aGairN0-24">
          <mxGeometry width="50" height="50" relative="1" as="geometry">
            <mxPoint x="-490" y="-240" as="sourcePoint" />
            <mxPoint x="-440" y="-290" as="targetPoint" />
          </mxGeometry>
        </mxCell>
        <mxCell id="Ar7ejT-WlbMmKzFcWVZC-6" value="«extends»" style="edgeLabel;html=1;align=center;verticalAlign=middle;resizable=0;points=[];" vertex="1" connectable="0" parent="Ar7ejT-WlbMmKzFcWVZC-4">
          <mxGeometry x="-0.2373" relative="1" as="geometry">
            <mxPoint y="1" as="offset" />
          </mxGeometry>
        </mxCell>
        <mxCell id="Ar7ejT-WlbMmKzFcWVZC-12" value="&lt;div style=&quot;&quot;&gt;Perform&amp;nbsp;&lt;span style=&quot;background-color: initial;&quot;&gt;Hazard&amp;nbsp;&lt;/span&gt;&lt;/div&gt;&lt;div style=&quot;&quot;&gt;&lt;span style=&quot;background-color: initial;&quot;&gt;&amp;amp; Data Curation&lt;/span&gt;&lt;/div&gt;" style="ellipse;whiteSpace=wrap;html=1;align=center;" vertex="1" parent="1">
          <mxGeometry x="-390" y="-620" width="140" height="100" as="geometry" />
        </mxCell>
        <mxCell id="Ar7ejT-WlbMmKzFcWVZC-14" style="rounded=0;orthogonalLoop=1;jettySize=auto;html=1;endArrow=none;endFill=0;entryX=0;entryY=0.5;entryDx=0;entryDy=0;fillColor=#dae8fc;strokeColor=#3333FF;" edge="1" parent="1" target="Ar7ejT-WlbMmKzFcWVZC-12">
          <mxGeometry relative="1" as="geometry">
            <mxPoint x="-720" y="-90" as="targetPoint" />
            <mxPoint x="-600" y="-190" as="sourcePoint" />
          </mxGeometry>
        </mxCell>
        <mxCell id="Ar7ejT-WlbMmKzFcWVZC-28" value="" style="rounded=0;orthogonalLoop=1;jettySize=auto;html=1;endArrow=none;endFill=0;exitX=0;exitY=0.5;exitDx=0;exitDy=0;fillColor=#d5e8d4;strokeColor=#82b366;" edge="1" parent="1" source="Ar7ejT-WlbMmKzFcWVZC-23">
          <mxGeometry relative="1" as="geometry">
            <mxPoint x="-470" y="-20" as="sourcePoint" />
            <mxPoint x="-600" y="-50" as="targetPoint" />
          </mxGeometry>
        </mxCell>
        <mxCell id="Ar7ejT-WlbMmKzFcWVZC-70" style="rounded=0;orthogonalLoop=1;jettySize=auto;html=1;exitX=0.5;exitY=1;exitDx=0;exitDy=0;entryX=0.5;entryY=0;entryDx=0;entryDy=0;dashed=1;" edge="1" parent="1" source="Ar7ejT-WlbMmKzFcWVZC-23" target="Ar7ejT-WlbMmKzFcWVZC-69">
          <mxGeometry relative="1" as="geometry" />
        </mxCell>
        <mxCell id="Ar7ejT-WlbMmKzFcWVZC-72" value="«includes»" style="edgeLabel;html=1;align=center;verticalAlign=middle;resizable=0;points=[];" vertex="1" connectable="0" parent="Ar7ejT-WlbMmKzFcWVZC-70">
          <mxGeometry x="0.0958" y="-2" relative="1" as="geometry">
            <mxPoint as="offset" />
          </mxGeometry>
        </mxCell>
        <mxCell id="Ar7ejT-WlbMmKzFcWVZC-23" value="&lt;div style=&quot;&quot;&gt;Input Businesses&amp;nbsp;&lt;/div&gt;&lt;div style=&quot;&quot;&gt;Information&lt;/div&gt;" style="ellipse;whiteSpace=wrap;html=1;align=center;" vertex="1" parent="1">
          <mxGeometry x="-110" y="-140" width="140" height="100" as="geometry" />
        </mxCell>
        <mxCell id="Ar7ejT-WlbMmKzFcWVZC-53" style="rounded=0;orthogonalLoop=1;jettySize=auto;html=1;exitX=0;exitY=1;exitDx=0;exitDy=0;entryX=0.5;entryY=0;entryDx=0;entryDy=0;dashed=1;" edge="1" parent="1" source="Ar7ejT-WlbMmKzFcWVZC-29" target="Ar7ejT-WlbMmKzFcWVZC-12">
          <mxGeometry relative="1" as="geometry" />
        </mxCell>
        <mxCell id="Ar7ejT-WlbMmKzFcWVZC-54" value="«includes»" style="edgeLabel;html=1;align=center;verticalAlign=middle;resizable=0;points=[];" vertex="1" connectable="0" parent="Ar7ejT-WlbMmKzFcWVZC-53">
          <mxGeometry x="0.1821" y="4" relative="1" as="geometry">
            <mxPoint as="offset" />
          </mxGeometry>
        </mxCell>
        <mxCell id="al0U0bGagrjpVdfjjXdj-9" style="edgeStyle=orthogonalEdgeStyle;rounded=0;orthogonalLoop=1;jettySize=auto;html=1;exitX=0.5;exitY=0;exitDx=0;exitDy=0;dashed=1;" edge="1" parent="1" source="Ar7ejT-WlbMmKzFcWVZC-29" target="al0U0bGagrjpVdfjjXdj-8">
          <mxGeometry relative="1" as="geometry" />
        </mxCell>
        <mxCell id="al0U0bGagrjpVdfjjXdj-10" value="«includes»" style="edgeLabel;html=1;align=center;verticalAlign=middle;resizable=0;points=[];" connectable="0" vertex="1" parent="al0U0bGagrjpVdfjjXdj-9">
          <mxGeometry x="-0.05" relative="1" as="geometry">
            <mxPoint as="offset" />
          </mxGeometry>
        </mxCell>
        <mxCell id="Ar7ejT-WlbMmKzFcWVZC-29" value="&lt;div style=&quot;&quot;&gt;Acess Lifeguard Hub&lt;/div&gt;" style="ellipse;whiteSpace=wrap;html=1;align=center;" vertex="1" parent="1">
          <mxGeometry x="-286" y="-870" width="140" height="100" as="geometry" />
        </mxCell>
        <mxCell id="Ar7ejT-WlbMmKzFcWVZC-32" style="rounded=0;orthogonalLoop=1;jettySize=auto;html=1;entryX=0;entryY=0.5;entryDx=0;entryDy=0;endArrow=none;endFill=0;fillColor=#dae8fc;strokeColor=#3333FF;" edge="1" parent="1" target="Ar7ejT-WlbMmKzFcWVZC-29">
          <mxGeometry relative="1" as="geometry">
            <mxPoint x="-600" y="-190" as="sourcePoint" />
          </mxGeometry>
        </mxCell>
        <mxCell id="Ar7ejT-WlbMmKzFcWVZC-33" style="rounded=0;orthogonalLoop=1;jettySize=auto;html=1;entryX=0;entryY=0.5;entryDx=0;entryDy=0;endArrow=none;endFill=0;fillColor=#d5e8d4;strokeColor=#82b366;" edge="1" parent="1" target="oRUoQj8NFfWG1aGairN0-10">
          <mxGeometry relative="1" as="geometry">
            <mxPoint x="-600" y="-50" as="sourcePoint" />
            <mxPoint x="-290" y="-330" as="targetPoint" />
          </mxGeometry>
        </mxCell>
        <mxCell id="Ar7ejT-WlbMmKzFcWVZC-36" style="rounded=0;orthogonalLoop=1;jettySize=auto;html=1;exitX=1;exitY=0.5;exitDx=0;exitDy=0;endArrow=none;endFill=0;fillColor=#d5e8d4;strokeColor=#82b366;" edge="1" parent="1" source="Ar7ejT-WlbMmKzFcWVZC-23">
          <mxGeometry relative="1" as="geometry">
            <mxPoint x="180" y="-640" as="targetPoint" />
            <mxPoint x="-146" y="-310" as="sourcePoint" />
          </mxGeometry>
        </mxCell>
        <mxCell id="Ar7ejT-WlbMmKzFcWVZC-43" value="&lt;div style=&quot;&quot;&gt;&lt;div&gt;Access Beach History&amp;nbsp;&lt;/div&gt;&lt;div&gt;and Metrics&lt;/div&gt;&lt;/div&gt;" style="ellipse;whiteSpace=wrap;html=1;align=center;" vertex="1" parent="1">
          <mxGeometry x="-110" y="-970" width="140" height="100" as="geometry" />
        </mxCell>
        <mxCell id="Ar7ejT-WlbMmKzFcWVZC-44" style="rounded=0;orthogonalLoop=1;jettySize=auto;html=1;entryX=0;entryY=0.5;entryDx=0;entryDy=0;endArrow=none;endFill=0;fillColor=#f8cecc;strokeColor=#b85450;" edge="1" parent="1" target="Ar7ejT-WlbMmKzFcWVZC-29">
          <mxGeometry relative="1" as="geometry">
            <mxPoint x="-600" y="-320" as="sourcePoint" />
            <mxPoint x="-400" y="-600" as="targetPoint" />
          </mxGeometry>
        </mxCell>
        <mxCell id="Ar7ejT-WlbMmKzFcWVZC-45" value="&lt;div style=&quot;&quot;&gt;Access Team Management&amp;nbsp; &amp;amp; Schedules&lt;/div&gt;" style="ellipse;whiteSpace=wrap;html=1;align=center;" vertex="1" parent="1">
          <mxGeometry x="-460" y="-970" width="140" height="100" as="geometry" />
        </mxCell>
        <mxCell id="Ar7ejT-WlbMmKzFcWVZC-46" value="&lt;div style=&quot;&quot;&gt;Provide&lt;/div&gt;&lt;div style=&quot;&quot;&gt;GPS Location&lt;/div&gt;" style="ellipse;whiteSpace=wrap;html=1;align=center;" vertex="1" parent="1">
          <mxGeometry x="-90" y="-310" width="100" height="80" as="geometry" />
        </mxCell>
        <mxCell id="Ar7ejT-WlbMmKzFcWVZC-47" style="rounded=0;orthogonalLoop=1;jettySize=auto;html=1;exitX=0.953;exitY=0.759;exitDx=0;exitDy=0;dashed=1;entryX=0;entryY=0.5;entryDx=0;entryDy=0;exitPerimeter=0;" edge="1" parent="1" source="oRUoQj8NFfWG1aGairN0-10" target="Ar7ejT-WlbMmKzFcWVZC-46">
          <mxGeometry relative="1" as="geometry">
            <mxPoint x="-206" y="-350" as="sourcePoint" />
            <mxPoint x="-206" y="-460" as="targetPoint" />
          </mxGeometry>
        </mxCell>
        <mxCell id="Ar7ejT-WlbMmKzFcWVZC-48" value="«includes»" style="edgeLabel;html=1;align=center;verticalAlign=middle;resizable=0;points=[];" vertex="1" connectable="0" parent="Ar7ejT-WlbMmKzFcWVZC-47">
          <mxGeometry x="-0.0067" relative="1" as="geometry">
            <mxPoint y="1" as="offset" />
          </mxGeometry>
        </mxCell>
        <mxCell id="Ar7ejT-WlbMmKzFcWVZC-55" style="rounded=0;orthogonalLoop=1;jettySize=auto;html=1;exitX=0;exitY=0;exitDx=0;exitDy=0;entryX=1;entryY=1;entryDx=0;entryDy=0;dashed=1;" edge="1" parent="1" source="Ar7ejT-WlbMmKzFcWVZC-29" target="Ar7ejT-WlbMmKzFcWVZC-45">
          <mxGeometry relative="1" as="geometry">
            <mxPoint x="-266" y="-775" as="sourcePoint" />
            <mxPoint x="-310" y="-610" as="targetPoint" />
          </mxGeometry>
        </mxCell>
        <mxCell id="Ar7ejT-WlbMmKzFcWVZC-56" value="«extends»" style="edgeLabel;html=1;align=center;verticalAlign=middle;resizable=0;points=[];" vertex="1" connectable="0" parent="Ar7ejT-WlbMmKzFcWVZC-55">
          <mxGeometry x="0.1821" y="4" relative="1" as="geometry">
            <mxPoint as="offset" />
          </mxGeometry>
        </mxCell>
        <mxCell id="Ar7ejT-WlbMmKzFcWVZC-57" style="rounded=0;orthogonalLoop=1;jettySize=auto;html=1;exitX=1;exitY=0;exitDx=0;exitDy=0;entryX=0;entryY=1;entryDx=0;entryDy=0;dashed=1;" edge="1" parent="1" source="Ar7ejT-WlbMmKzFcWVZC-29" target="Ar7ejT-WlbMmKzFcWVZC-43">
          <mxGeometry relative="1" as="geometry">
            <mxPoint x="-266" y="-845" as="sourcePoint" />
            <mxPoint x="-340" y="-885" as="targetPoint" />
          </mxGeometry>
        </mxCell>
        <mxCell id="Ar7ejT-WlbMmKzFcWVZC-58" value="«includes»" style="edgeLabel;html=1;align=center;verticalAlign=middle;resizable=0;points=[];" vertex="1" connectable="0" parent="Ar7ejT-WlbMmKzFcWVZC-57">
          <mxGeometry x="0.1821" y="4" relative="1" as="geometry">
            <mxPoint x="-7" y="6" as="offset" />
          </mxGeometry>
        </mxCell>
        <mxCell id="Ar7ejT-WlbMmKzFcWVZC-59" style="rounded=0;orthogonalLoop=1;jettySize=auto;html=1;exitX=1;exitY=0.5;exitDx=0;exitDy=0;endArrow=none;endFill=0;fillColor=#f8cecc;strokeColor=#b85450;" edge="1" parent="1" source="Ar7ejT-WlbMmKzFcWVZC-29">
          <mxGeometry relative="1" as="geometry">
            <mxPoint x="180" y="-640" as="targetPoint" />
          </mxGeometry>
        </mxCell>
        <mxCell id="Ar7ejT-WlbMmKzFcWVZC-60" value="&lt;div style=&quot;&quot;&gt;Acess Client Register&lt;/div&gt;" style="ellipse;whiteSpace=wrap;html=1;align=center;" vertex="1" parent="1">
          <mxGeometry x="-190" y="200" width="120" height="90" as="geometry" />
        </mxCell>
        <mxCell id="Ar7ejT-WlbMmKzFcWVZC-61" value="&lt;div&gt;«Service»&lt;/div&gt;Paypal" style="shape=umlActor;verticalLabelPosition=bottom;verticalAlign=top;html=1;outlineConnect=0;" vertex="1" parent="1">
          <mxGeometry x="170" y="100" width="30" height="60" as="geometry" />
        </mxCell>
        <mxCell id="Ar7ejT-WlbMmKzFcWVZC-62" value="&lt;div&gt;«Service»&lt;/div&gt;Credit&amp;nbsp;&lt;div&gt;Payment&lt;/div&gt;&lt;div&gt;Service&lt;/div&gt;" style="shape=umlActor;verticalLabelPosition=bottom;verticalAlign=top;html=1;outlineConnect=0;" vertex="1" parent="1">
          <mxGeometry x="170" y="-60" width="30" height="60" as="geometry" />
        </mxCell>
        <mxCell id="Ar7ejT-WlbMmKzFcWVZC-64" value="" style="rounded=0;orthogonalLoop=1;jettySize=auto;html=1;endArrow=none;endFill=0;exitX=0;exitY=0.5;exitDx=0;exitDy=0;fillColor=#d5e8d4;strokeColor=#82b366;" edge="1" parent="1" source="Ar7ejT-WlbMmKzFcWVZC-60">
          <mxGeometry relative="1" as="geometry">
            <mxPoint x="-100" y="-90" as="sourcePoint" />
            <mxPoint x="-600" y="-50" as="targetPoint" />
          </mxGeometry>
        </mxCell>
        <mxCell id="Ar7ejT-WlbMmKzFcWVZC-66" value="" style="rounded=0;orthogonalLoop=1;jettySize=auto;html=1;endArrow=none;endFill=0;exitX=0;exitY=0.5;exitDx=0;exitDy=0;fillColor=#dae8fc;strokeColor=#3333FF;" edge="1" parent="1" source="Ar7ejT-WlbMmKzFcWVZC-60">
          <mxGeometry relative="1" as="geometry">
            <mxPoint x="-300" y="-20" as="sourcePoint" />
            <mxPoint x="-600" y="-190" as="targetPoint" />
          </mxGeometry>
        </mxCell>
        <mxCell id="Ar7ejT-WlbMmKzFcWVZC-67" value="" style="rounded=0;orthogonalLoop=1;jettySize=auto;html=1;endArrow=none;endFill=0;exitX=0;exitY=0.5;exitDx=0;exitDy=0;fillColor=#f8cecc;strokeColor=#b85450;" edge="1" parent="1" source="Ar7ejT-WlbMmKzFcWVZC-60">
          <mxGeometry relative="1" as="geometry">
            <mxPoint x="-266" y="45" as="sourcePoint" />
            <mxPoint x="-600" y="-320" as="targetPoint" />
          </mxGeometry>
        </mxCell>
        <mxCell id="Ar7ejT-WlbMmKzFcWVZC-68" value="" style="rounded=0;orthogonalLoop=1;jettySize=auto;html=1;endArrow=none;endFill=0;exitX=0;exitY=0.5;exitDx=0;exitDy=0;fillColor=#fff2cc;strokeColor=#d6b656;" edge="1" parent="1" source="Ar7ejT-WlbMmKzFcWVZC-60">
          <mxGeometry relative="1" as="geometry">
            <mxPoint x="-266" y="45" as="sourcePoint" />
            <mxPoint x="-730" y="-620" as="targetPoint" />
          </mxGeometry>
        </mxCell>
        <mxCell id="Ar7ejT-WlbMmKzFcWVZC-69" value="&lt;div style=&quot;&quot;&gt;Checkout&lt;/div&gt;" style="ellipse;whiteSpace=wrap;html=1;align=center;" vertex="1" parent="1">
          <mxGeometry x="-100" y="50" width="120" height="90" as="geometry" />
        </mxCell>
        <mxCell id="Ar7ejT-WlbMmKzFcWVZC-73" value="&lt;div style=&quot;&quot;&gt;Access Map Extended&amp;nbsp;&lt;/div&gt;&lt;div style=&quot;&quot;&gt;View&lt;/div&gt;" style="ellipse;whiteSpace=wrap;html=1;align=center;" vertex="1" parent="1">
          <mxGeometry x="-140" y="-650" width="140" height="100" as="geometry" />
        </mxCell>
        <mxCell id="Ar7ejT-WlbMmKzFcWVZC-74" style="rounded=0;orthogonalLoop=1;jettySize=auto;html=1;exitX=1;exitY=1;exitDx=0;exitDy=0;dashed=1;entryX=0.291;entryY=0.072;entryDx=0;entryDy=0;entryPerimeter=0;" edge="1" parent="1" source="Ar7ejT-WlbMmKzFcWVZC-29" target="Ar7ejT-WlbMmKzFcWVZC-73">
          <mxGeometry relative="1" as="geometry">
            <mxPoint x="-256" y="-845" as="sourcePoint" />
            <mxPoint x="220" y="-760" as="targetPoint" />
          </mxGeometry>
        </mxCell>
        <mxCell id="Ar7ejT-WlbMmKzFcWVZC-75" value="«includes»" style="edgeLabel;html=1;align=center;verticalAlign=middle;resizable=0;points=[];" vertex="1" connectable="0" parent="Ar7ejT-WlbMmKzFcWVZC-74">
          <mxGeometry x="0.1821" y="4" relative="1" as="geometry">
            <mxPoint as="offset" />
          </mxGeometry>
        </mxCell>
        <mxCell id="Ar7ejT-WlbMmKzFcWVZC-76" style="rounded=0;orthogonalLoop=1;jettySize=auto;html=1;exitX=1;exitY=0;exitDx=0;exitDy=0;dashed=1;entryX=0.274;entryY=0.989;entryDx=0;entryDy=0;entryPerimeter=0;" edge="1" parent="1" source="oRUoQj8NFfWG1aGairN0-10" target="Ar7ejT-WlbMmKzFcWVZC-73">
          <mxGeometry relative="1" as="geometry">
            <mxPoint x="-156" y="-775" as="sourcePoint" />
            <mxPoint x="-89" y="-633" as="targetPoint" />
          </mxGeometry>
        </mxCell>
        <mxCell id="Ar7ejT-WlbMmKzFcWVZC-77" value="«extends»" style="edgeLabel;html=1;align=center;verticalAlign=middle;resizable=0;points=[];" vertex="1" connectable="0" parent="Ar7ejT-WlbMmKzFcWVZC-76">
          <mxGeometry x="0.1821" y="4" relative="1" as="geometry">
            <mxPoint as="offset" />
          </mxGeometry>
        </mxCell>
        <mxCell id="Ar7ejT-WlbMmKzFcWVZC-78" style="edgeStyle=orthogonalEdgeStyle;rounded=0;orthogonalLoop=1;jettySize=auto;html=1;exitX=1;exitY=0.5;exitDx=0;exitDy=0;curved=1;endArrow=none;endFill=0;" edge="1" parent="1" source="Ar7ejT-WlbMmKzFcWVZC-60">
          <mxGeometry relative="1" as="geometry">
            <mxPoint x="240" y="-660" as="targetPoint" />
            <Array as="points">
              <mxPoint x="510" y="245" />
              <mxPoint x="510" y="-660" />
            </Array>
          </mxGeometry>
        </mxCell>
        <mxCell id="Ar7ejT-WlbMmKzFcWVZC-79" style="rounded=0;orthogonalLoop=1;jettySize=auto;html=1;endArrow=none;endFill=0;exitX=1;exitY=0.5;exitDx=0;exitDy=0;fillColor=#f8cecc;strokeColor=#b85450;" edge="1" parent="1" source="Ar7ejT-WlbMmKzFcWVZC-29">
          <mxGeometry relative="1" as="geometry">
            <mxPoint x="180" y="-480" as="targetPoint" />
            <mxPoint x="300" y="-580" as="sourcePoint" />
          </mxGeometry>
        </mxCell>
        <mxCell id="Ar7ejT-WlbMmKzFcWVZC-80" style="rounded=0;orthogonalLoop=1;jettySize=auto;html=1;endArrow=none;endFill=0;exitX=1;exitY=0.5;exitDx=0;exitDy=0;fillColor=#d5e8d4;strokeColor=#82b366;" edge="1" parent="1" source="Ar7ejT-WlbMmKzFcWVZC-23">
          <mxGeometry relative="1" as="geometry">
            <mxPoint x="180" y="-480" as="targetPoint" />
            <mxPoint x="220" y="-270" as="sourcePoint" />
          </mxGeometry>
        </mxCell>
        <mxCell id="Ar7ejT-WlbMmKzFcWVZC-81" style="rounded=0;orthogonalLoop=1;jettySize=auto;html=1;endArrow=none;endFill=0;exitX=1;exitY=0.5;exitDx=0;exitDy=0;" edge="1" parent="1" source="Ar7ejT-WlbMmKzFcWVZC-69">
          <mxGeometry relative="1" as="geometry">
            <mxPoint x="160" y="-40" as="targetPoint" />
            <mxPoint x="40" y="-80" as="sourcePoint" />
          </mxGeometry>
        </mxCell>
        <mxCell id="Ar7ejT-WlbMmKzFcWVZC-82" style="rounded=0;orthogonalLoop=1;jettySize=auto;html=1;endArrow=none;endFill=0;exitX=1;exitY=0.5;exitDx=0;exitDy=0;" edge="1" parent="1" source="Ar7ejT-WlbMmKzFcWVZC-69">
          <mxGeometry relative="1" as="geometry">
            <mxPoint x="160" y="120" as="targetPoint" />
            <mxPoint x="30" y="105" as="sourcePoint" />
          </mxGeometry>
        </mxCell>
        <mxCell id="al0U0bGagrjpVdfjjXdj-1" style="rounded=0;orthogonalLoop=1;jettySize=auto;html=1;entryX=0;entryY=0.5;entryDx=0;entryDy=0;endArrow=none;endFill=0;fillColor=#f8cecc;strokeColor=#b85450;" edge="1" parent="1" target="Ar7ejT-WlbMmKzFcWVZC-12">
          <mxGeometry relative="1" as="geometry">
            <mxPoint x="-600" y="-320" as="sourcePoint" />
            <mxPoint x="-276" y="-810" as="targetPoint" />
          </mxGeometry>
        </mxCell>
        <mxCell id="al0U0bGagrjpVdfjjXdj-3" style="rounded=0;orthogonalLoop=1;jettySize=auto;html=1;endArrow=none;endFill=0;fillColor=#dae8fc;strokeColor=#3333FF;entryX=0.429;entryY=1;entryDx=0;entryDy=0;entryPerimeter=0;" edge="1" parent="1" target="Ar7ejT-WlbMmKzFcWVZC-45">
          <mxGeometry relative="1" as="geometry">
            <mxPoint x="-600" y="-190" as="sourcePoint" />
            <mxPoint x="-670" y="-830" as="targetPoint" />
          </mxGeometry>
        </mxCell>
        <mxCell id="al0U0bGagrjpVdfjjXdj-4" style="rounded=0;orthogonalLoop=1;jettySize=auto;html=1;endArrow=none;endFill=0;exitX=0.982;exitY=0.64;exitDx=0;exitDy=0;fillColor=#f8cecc;strokeColor=#0000FF;exitPerimeter=0;" edge="1" parent="1" source="Ar7ejT-WlbMmKzFcWVZC-29">
          <mxGeometry relative="1" as="geometry">
            <mxPoint x="180" y="-480" as="targetPoint" />
            <mxPoint x="-156" y="-810" as="sourcePoint" />
          </mxGeometry>
        </mxCell>
        <mxCell id="al0U0bGagrjpVdfjjXdj-5" style="rounded=0;orthogonalLoop=1;jettySize=auto;html=1;endArrow=none;endFill=0;exitX=0.986;exitY=0.64;exitDx=0;exitDy=0;fillColor=#f8cecc;strokeColor=#0000FF;exitPerimeter=0;" edge="1" parent="1" source="Ar7ejT-WlbMmKzFcWVZC-29">
          <mxGeometry relative="1" as="geometry">
            <mxPoint x="180" y="-640" as="targetPoint" />
            <mxPoint x="-138" y="-791" as="sourcePoint" />
          </mxGeometry>
        </mxCell>
        <mxCell id="al0U0bGagrjpVdfjjXdj-8" value="&lt;div style=&quot;&quot;&gt;&lt;div&gt;Access&amp;nbsp;&lt;/div&gt;&lt;div&gt;Comunications&lt;/div&gt;&lt;/div&gt;" style="ellipse;whiteSpace=wrap;html=1;align=center;" vertex="1" parent="1">
          <mxGeometry x="-286" y="-1020" width="140" height="100" as="geometry" />
        </mxCell>
      </root>
    </mxGraphModel>
  </diagram>
</mxfile>
